<svg width="430" height="680" viewBox="0 0 430 680" xmlns="http://www.w3.org/2000/svg">
  <!-- Define colors from the palette -->
  <style>
    .background-greyish-teal { fill: #355d5e; }
    .background-light-cyan { fill: #e8fffd; }
    .background-green { fill: #2e8913; }
    .background-light-green { fill: #a0cbb3; }
    .background-persian-green { fill: #013b3d; }
    .room { fill: #a0cbb3; }
    .corridor { fill: #e8fffd; }
    .border { stroke: #013b3d; stroke-width: 2; stroke-dasharray: 5,5; }
  </style>

  <!-- Background -->
  <rect width="430" height="680" class="background-persian-green" />

  <!-- Corridor -->
  <rect x="140" y="0" width="150" height="680" class="room" />

  <!-- Rooms on the left side -->
  <rect x="30" y="56" width="110" height="100" class="room" rx="10" ry="10" />
  <rect x="30" y="212" width="110" height="100" class="room" rx="10" ry="10" />
  <rect x="30" y="368" width="110" height="100" class="room" rx="10" ry="10" />
  <rect x="30" y="524" width="110" height="100" class="room" rx="10" ry="10" />

  <!-- Rooms on the right side -->
  <rect x="290" y="56" width="110" height="100" class="room" rx="10" ry="10" />
  <rect x="290" y="212" width="110" height="100" class="room" rx="10" ry="10" />
  <rect x="290" y="368" width="110" height="100" class="room" rx="10" ry="10" />
  <rect x="290" y="524" width="110" height="100" class="room" rx="10" ry="10" />

  <!-- Dashed lines -->
  <line x1="140" y1="56" x2="140" y2="156" class="border" />
  <line x1="140" y1="212" x2="140" y2="312" class="border" />
  <line x1="140" y1="368" x2="140" y2="468" class="border" />
  <line x1="140" y1="524" x2="140" y2="624" class="border" />

  <line x1="290" y1="56" x2="290" y2="156" class="border" />
  <line x1="290" y1="212" x2="290" y2="312" class="border" />
  <line x1="290" y1="368" x2="290" y2="468" class="border" />
  <line x1="290" y1="524" x2="290" y2="624" class="border" />
</svg>